<svg width="899" height="200" viewBox="0 0 899 200" fill="none" xmlns="http://www.w3.org/2000/svg">
<mask id="mask0_1446_45406" style="mask-type:alpha" maskUnits="userSpaceOnUse" x="0" y="0" width="200" height="200">
<circle cx="99.5625" cy="99.5625" r="99.5625" fill="#D9D9D9"/>
</mask>
<g mask="url(#mask0_1446_45406)">
<path d="M99.597 7.77702C85.5463 7.75577 70.4906 -1.03766 56.1459 -5.6084L47.8252 14.1359C64.1722 19.4856 82.1136 29.0794 99.4555 29.1224L99.597 29.1227L99.7384 29.1227C117.08 29.0798 135.022 19.4856 151.369 14.1359L143.048 -5.6084C128.703 -1.03766 113.648 7.75577 99.597 7.77702Z" fill="white"/>
<path d="M20.4787 36.4614C39.5104 39.5807 66.851 48.3246 99.8825 48.3338C132.914 48.3246 160.255 39.5807 179.286 36.4614C183.452 35.7785 187.218 35.0968 190.556 34.4492L195.89 55.1555C192.044 55.9152 187.646 56.7214 182.736 57.5262C162.781 60.7967 134.327 69.6611 100.028 69.6794H99.7375C65.438 69.6611 36.9837 60.7967 17.0295 57.5262C12.1193 56.7214 7.72126 55.9152 3.87484 55.1555L9.20861 34.4492C12.5468 35.0968 16.3127 35.7785 20.4787 36.4614Z" fill="white"/>
<path d="M211.465 110.236L99.5628 112.371L-12.3398 110.236V88.8905L99.5628 86.7559L211.465 88.8905V110.236Z" fill="white"/>
<path d="M99.8831 150.793C132.915 150.802 160.255 159.546 179.287 162.665C183.453 163.348 187.219 164.03 190.557 164.677L195.891 143.971C192.044 143.211 187.646 142.405 182.736 141.6C162.782 138.33 134.328 129.465 100.028 129.447H99.7381C65.4386 129.465 36.9843 138.33 17.0301 141.6C12.1198 142.405 7.72182 143.211 3.87541 143.971L9.20919 164.677C12.5474 164.03 16.3133 163.348 20.4793 162.665C39.511 159.546 66.8516 150.802 99.8831 150.793Z" fill="white"/>
<path d="M143.62 204.735C129.275 200.164 114.219 191.371 100.169 191.349C86.118 191.371 71.0623 200.164 56.7176 204.735L48.3969 184.991C64.7439 179.641 82.6853 170.047 100.027 170.004L100.169 170.004L100.31 170.004C117.652 170.047 135.593 179.641 151.94 184.991L143.62 204.735Z" fill="white"/>
</g>
<path d="M289.733 142.135C279.524 142.135 270.692 140.349 263.239 136.778C255.786 133.168 250.041 128.102 246.004 121.58C241.967 115.059 239.948 107.373 239.948 98.5222V98.464C239.948 89.6134 241.967 81.9468 246.004 75.4641C250.041 68.9426 255.786 63.8962 263.239 60.325C270.692 56.7537 279.524 54.968 289.733 54.968C298.118 54.968 305.571 56.249 312.092 58.811C318.652 61.3342 324.029 64.9055 328.221 69.5249C332.414 74.1443 335.111 79.6177 336.315 85.9451L336.431 86.5856H323.971L323.738 85.8286C322.34 81.5586 320.128 77.9291 317.1 74.9401C314.072 71.951 310.268 69.6802 305.687 68.1274C301.107 66.5747 295.808 65.7983 289.791 65.7983C282.105 65.7983 275.486 67.157 269.935 69.8743C264.384 72.5527 260.095 76.3375 257.067 81.2286C254.078 86.1198 252.584 91.8649 252.584 98.464V98.5222C252.584 105.121 254.098 110.886 257.125 115.816C260.153 120.707 264.443 124.511 269.994 127.228C275.545 129.946 282.144 131.304 289.791 131.304C295.73 131.304 300.971 130.509 305.512 128.917C310.093 127.287 313.917 124.938 316.983 121.871C320.089 118.805 322.36 115.059 323.796 110.634L323.971 110.226H336.431L336.315 110.808C335.111 117.174 332.414 122.706 328.221 127.403C324.029 132.1 318.652 135.73 312.092 138.292C305.532 140.854 298.079 142.135 289.733 142.135ZM380.975 141.902C373.716 141.902 367.331 140.601 361.818 138C356.306 135.4 351.997 131.731 348.892 126.995C345.786 122.26 344.234 116.65 344.234 110.168V110.051C344.234 103.569 345.786 97.9788 348.892 93.2817C351.997 88.5459 356.306 84.8776 361.818 82.2767C367.331 79.6759 373.716 78.3755 380.975 78.3755C388.234 78.3755 394.62 79.6759 400.132 82.2767C405.683 84.8776 410.011 88.5459 413.117 93.2817C416.222 97.9788 417.775 103.569 417.775 110.051V110.168C417.775 116.65 416.222 122.26 413.117 126.995C410.011 131.731 405.703 135.4 400.19 138C394.678 140.601 388.273 141.902 380.975 141.902ZM381.034 132.003C385.886 132.003 390.156 131.149 393.844 129.441C397.531 127.733 400.404 125.268 402.461 122.046C404.557 118.785 405.606 114.826 405.606 110.168V110.051C405.606 105.432 404.557 101.511 402.461 98.2893C400.404 95.0286 397.512 92.5442 393.785 90.8362C390.098 89.1282 385.828 88.2742 380.975 88.2742C376.162 88.2742 371.892 89.1282 368.165 90.8362C364.478 92.5442 361.586 95.0286 359.489 98.2893C357.432 101.511 356.403 105.432 356.403 110.051V110.168C356.403 114.826 357.432 118.785 359.489 122.046C361.586 125.268 364.478 127.733 368.165 129.441C371.892 131.149 376.181 132.003 381.034 132.003ZM428.314 140.562V56.5402H440.251V140.562H428.314ZM454.167 140.562V56.5402H466.104V140.562H454.167ZM504.127 141.785C498.692 141.785 493.956 141.067 489.919 139.631C485.882 138.156 482.738 136.001 480.486 133.168C478.235 130.334 477.109 126.86 477.109 122.745V122.628C477.109 119.212 477.963 116.223 479.671 113.661C481.418 111.061 484.116 109.023 487.765 107.547C491.452 106.072 496.208 105.257 502.03 105.102L537.083 104.345V112.672L503.37 113.545C498.362 113.661 494.733 114.496 492.481 116.049C490.268 117.601 489.162 119.698 489.162 122.337V122.454C489.162 125.753 490.734 128.238 493.879 129.907C497.023 131.537 501.157 132.352 506.281 132.352C511.289 132.352 515.636 131.654 519.324 130.256C523.051 128.859 525.943 126.898 528 124.375C530.096 121.852 531.144 118.882 531.144 115.466V102.423C531.144 97.8817 529.397 94.3687 525.904 91.8843C522.449 89.3611 517.577 88.0995 511.289 88.0995C505.699 88.0995 501.196 89.0505 497.78 90.9526C494.403 92.8159 492.287 95.3391 491.433 98.5222L491.258 99.0463H479.729L479.846 98.4058C480.428 94.5627 482.058 91.1467 484.737 88.1577C487.454 85.1299 491.045 82.7426 495.509 80.9957C500.012 79.2489 505.291 78.3755 511.347 78.3755C517.985 78.3755 523.672 79.3071 528.407 81.1704C533.143 83.0337 536.753 85.7122 539.238 89.2058C541.761 92.6606 543.023 96.7948 543.023 101.608V140.562H531.144V129.674H530.853C529.417 132.12 527.359 134.255 524.681 136.079C522.041 137.865 518.955 139.262 515.423 140.271C511.929 141.281 508.164 141.785 504.127 141.785ZM586.227 141.669C578.541 141.669 572.835 140.058 569.109 136.836C565.382 133.575 563.519 128.529 563.519 121.697V89.0311H550.126V79.7147H563.519V63.5275H575.572V79.7147H595.893V89.0311H575.572V120.707C575.572 124.977 576.6 127.985 578.658 129.732C580.715 131.479 584.073 132.352 588.731 132.352C589.935 132.352 591.196 132.294 592.516 132.178C593.836 132.022 594.962 131.848 595.893 131.654V140.854C594.573 141.087 593.079 141.281 591.41 141.436C589.74 141.591 588.013 141.669 586.227 141.669ZM638.341 141.902C630.694 141.902 624.114 140.66 618.602 138.175C613.09 135.691 608.859 132.1 605.908 127.403C602.958 122.706 601.483 117.019 601.483 110.342V110.284C601.483 103.84 602.978 98.2311 605.967 93.4564C608.994 88.6429 613.187 84.9164 618.544 82.2767C623.939 79.6371 630.247 78.3561 637.468 78.4337C644.766 78.4725 651.015 79.8312 656.217 82.5096C661.457 85.1493 665.456 88.8564 668.212 93.6311C671.007 98.4058 672.404 103.996 672.404 110.401V113.254H607.48V104.694H665.184L660.7 111.623V108.246C660.7 104.093 659.749 100.521 657.847 97.5323C655.984 94.5045 653.325 92.1754 649.87 90.545C646.415 88.9147 642.281 88.0995 637.468 88.0995C632.421 88.0995 628.093 88.8953 624.483 90.4868C620.912 92.0784 618.175 94.4463 616.273 97.5906C614.371 100.735 613.42 104.636 613.42 109.294V111.216C613.42 116.34 614.565 120.435 616.855 123.502C619.145 126.568 622.193 128.801 625.997 130.198C629.84 131.557 634.052 132.236 638.632 132.236C641.815 132.236 644.804 131.887 647.599 131.188C650.394 130.489 652.82 129.48 654.878 128.16C656.935 126.84 658.449 125.21 659.419 123.269L659.594 122.803H671.414L671.24 123.385C670.269 126.413 668.755 129.092 666.698 131.421C664.641 133.711 662.156 135.633 659.245 137.185C656.333 138.738 653.111 139.903 649.579 140.679C646.047 141.494 642.301 141.902 638.341 141.902ZM682.361 140.562V79.7147L694.24 79.7729V91.826H694.589C695.986 87.7113 698.471 84.47 702.042 82.1021C705.652 79.7341 709.98 78.5502 715.027 78.5502C716.152 78.5502 717.201 78.6084 718.171 78.7249C719.18 78.8025 720.034 78.9189 720.733 79.0742V89.7881C719.84 89.6328 718.792 89.5164 717.589 89.4387C716.385 89.3223 715.104 89.264 713.746 89.264C709.786 89.264 706.351 90.0404 703.439 91.5931C700.528 93.1459 698.257 95.3973 696.627 98.3475C695.035 101.259 694.24 104.772 694.24 108.887V140.562H682.361ZM729.234 140.562V79.7147H741.113V140.562H729.234ZM735.173 69.9325C733.155 69.9325 731.447 69.2726 730.049 67.9528C728.691 66.5941 728.011 64.9637 728.011 63.0616C728.011 61.1207 728.691 59.4904 730.049 58.1705C731.447 56.8507 733.155 56.1908 735.173 56.1908C737.231 56.1908 738.939 56.8507 740.297 58.1705C741.656 59.4904 742.335 61.1207 742.335 63.0616C742.335 64.9637 741.656 66.5941 740.297 67.9528C738.939 69.2726 737.231 69.9325 735.173 69.9325ZM753.34 140.562V132.76L797.477 89.2058V88.9729H753.515V79.6565H813.024V87.8083L769.469 131.071V131.246H813.373V140.562H753.34ZM856.461 141.902C848.814 141.902 842.234 140.66 836.722 138.175C831.21 135.691 826.979 132.1 824.029 127.403C821.078 122.706 819.603 117.019 819.603 110.342V110.284C819.603 103.84 821.098 98.2311 824.087 93.4564C827.115 88.6429 831.307 84.9164 836.664 82.2767C842.06 79.6371 848.368 78.3561 855.588 78.4337C862.886 78.4725 869.136 79.8312 874.337 82.5096C879.578 85.1493 883.576 88.8564 886.332 93.6311C889.127 98.4058 890.525 103.996 890.525 110.401V113.254H825.601V104.694H883.304L878.821 111.623V108.246C878.821 104.093 877.87 100.521 875.968 97.5323C874.104 94.5045 871.445 92.1754 867.99 90.545C864.536 88.9147 860.401 88.0995 855.588 88.0995C850.542 88.0995 846.213 88.8953 842.603 90.4868C839.032 92.0784 836.295 94.4463 834.393 97.5906C832.491 100.735 831.54 104.636 831.54 109.294V111.216C831.54 116.34 832.685 120.435 834.975 123.502C837.266 126.568 840.313 128.801 844.117 130.198C847.96 131.557 852.172 132.236 856.753 132.236C859.936 132.236 862.925 131.887 865.72 131.188C868.515 130.489 870.941 129.48 872.998 128.16C875.055 126.84 876.569 125.21 877.54 123.269L877.714 122.803H889.535L889.36 123.385C888.39 126.413 886.876 129.092 884.818 131.421C882.761 133.711 880.276 135.633 877.365 137.185C874.454 138.738 871.232 139.903 867.699 140.679C864.167 141.494 860.421 141.902 856.461 141.902Z" fill="white"/>
</svg>
